<?xml version="1.0" standalone="no"?><!DOCTYPE svg PUBLIC "-//W3C//DTD SVG 1.1//EN" "http://www.w3.org/Graphics/SVG/1.1/DTD/svg11.dtd"><svg t="1680578837818" class="icon" viewBox="0 0 1024 1024" version="1.1" xmlns="http://www.w3.org/2000/svg" p-id="2717" width="128" height="128" xmlns:xlink="http://www.w3.org/1999/xlink"><path d="M236.706202 651.900826c-96.585318-168.113766-74.581094-266.159309-74.581094-266.159309s-187.782656 34.91072-43.480269 313.689088c144.07209 278.357709 302.810829 163.56393 302.810829 163.56393S327.993549 810.781901 236.706202 651.900826zM434.465485 321.499341c207.106662 111.561114 269.116826 15.299174 269.116826 15.299174s6.414438-54.320742-5.7472-126.069146c-12.127744-71.547904-48.588902-140.108595-48.588902-140.108595s2.899149-0.648806-19.873587-0.648806c-65.901056 0-84.524032 55.855718-190.348186 99.675853-69.085696 28.60585-70.187827 15.624602-132.015923 27.01353-24.031437 4.444467-49.604096 16.310272-71.266509 35.253555-52.355891 45.813555-124.656947 162.877235-124.656947 162.877235S310.533018 254.731571 434.465485 321.499341zM922.29591 345.632154C886.122291 292.484198 673.239859 82.162176 673.239859 82.162176s123.417702 228.062925-8.70871 531.574784C532.185702 917.725594 348.329677 896.34048 348.329677 896.34048s90.600755 13.65975 154.688307 21.481267c54.244966 6.620058 104.321843 7.630131 104.321843 7.630131s178.719744 12.15232 295.803904-221.815296C998.422221 513.250509 945.614029 379.894067 922.29591 345.632154z" p-id="2718" fill="#2c2c2c"></path></svg>